# xmcd CD database file
#
# Track frame offsets:
#	150
#	15220
#	29058
#	41465
#	55487
#	71529
#	86167
#	102317
#	116531
#	131400
#	146714
#	162368
#	175276
#	190766
#	205561
#	220419
#	235591
#	251090
#	264568
#	279898
#	289783
#	308930
#	329856
#	344776
#
# Disc length: 4793 seconds
#
# Revision: 3
# Processed by: cddbd v1.5.2PL0 Copyright (c) Steve Scherf et al.
# Submitted via: CDex 1.51
#
DISCID=7112b718
DTITLE=Artie Shaw - Begin The Beguine  [CD 09-10]
DYEAR=2005
DGENRE=Jazz
TTITLE0=Confessin'
TTITLE1=Love Me A Little Little
TTITLE2=Beyond The Blue Horizon
TTITLE3=Don't Take Your Love From Me
TTITLE4=This Time The Dream's On Me
TTITLE5=Blues In The Night
TTITLE6=Nocturne
TTITLE7=Rockin' Chair
TTITLE8=Through The Years
TTITLE9=If I Love Again
TTITLE10=I Ask The Stars
TTITLE11=Beyond The Blue Horizon
TTITLE12=Take Your Shoes Off, Baby
TTITLE13=Make Love To Me
TTITLE14=Solid Sam
TTITLE15=Just Kiddin' Around
TTITLE16=To A Broadway Rose
TTITLE17=St. James Infirmary  (Part 1)
TTITLE18=St. James Infirmary  (Part 2)
TTITLE19=Deuces Wild
TTITLE20=Dusk  (Evensong)
TTITLE21=Suite N°8
TTITLE22=Someone's Rocking My Dreamboat
TTITLE23=I Don't Want To Walk Without You
EXTD=YEAR: 2005
EXTT0=
EXTT1=
EXTT2=
EXTT3=
EXTT4=
EXTT5=
EXTT6=
EXTT7=
EXTT8=
EXTT9=
EXTT10=
EXTT11=
EXTT12=
EXTT13=
EXTT14=
EXTT15=
EXTT16=
EXTT17=
EXTT18=
EXTT19=
EXTT20=
EXTT21=
EXTT22=
EXTT23=
PLAYORDER=
